<svg xmlns="http://www.w3.org/2000/svg" width="170" height="46" viewBox="0 0 170 46"><defs><mask id="fggqb" width="2" height="2" x="-1" y="-1"><path fill="#fff" d="M0 0h170v42H0z"/><path d="M20.5 0h129C160.822 0 170 9.178 170 20.5v1c0 11.322-9.178 20.5-20.5 20.5h-129C9.178 42 0 32.822 0 21.5v-1C0 9.178 9.178 0 20.5 0z"/></mask><filter id="fggqa" width="190" height="66" x="-10" y="-10" filterUnits="userSpaceOnUse"><feOffset dy="4" in="SourceGraphic" result="FeOffset1023Out"/><feGaussianBlur in="FeOffset1023Out" result="FeGaussianBlur1024Out" stdDeviation="0 0"/></filter></defs><g><g><g filter="url(#fggqa)"><path fill="none" d="M20.5 0h129C160.822 0 170 9.178 170 20.5v1c0 11.322-9.178 20.5-20.5 20.5h-129C9.178 42 0 32.822 0 21.5v-1C0 9.178 9.178 0 20.5 0z" mask="url(&quot;#fggqb&quot;)"/><path fill="#503588" d="M20.5 0h129C160.822 0 170 9.178 170 20.5v1c0 11.322-9.178 20.5-20.5 20.5h-129C9.178 42 0 32.822 0 21.5v-1C0 9.178 9.178 0 20.5 0z"/></g><path fill="#7051b2" d="M20.5 0h129C160.822 0 170 9.178 170 20.5v1c0 11.322-9.178 20.5-20.5 20.5h-129C9.178 42 0 32.822 0 21.5v-1C0 9.178 9.178 0 20.5 0z"/></g></g></svg>