<?xml version="1.0" encoding="UTF-8"?>
<!DOCTYPE svg PUBLIC "-//W3C//DTD SVG 1.1//EN" "http://www.w3.org/Graphics/SVG/1.1/DTD/svg11.dtd">
<!-- Creator: CorelDRAW 2020 (64-Bit) -->
<svg xmlns="http://www.w3.org/2000/svg" xml:space="preserve" width="10.2733mm" height="11.192mm" version="1.1" style="shape-rendering:geometricPrecision; text-rendering:geometricPrecision; image-rendering:optimizeQuality; fill-rule:evenodd; clip-rule:evenodd"
viewBox="0 0 633.17 689.79"
 xmlns:xlink="http://www.w3.org/1999/xlink"
 xmlns:xodm="http://www.corel.com/coreldraw/odm/2003">
 <defs>
  <style type="text/css">
   <![CDATA[
    .fil0 {fill:#4F5661}
   ]]>
  </style>
 </defs>
 <g id="Слой_x0020_1">
  <metadata id="CorelCorpID_0Corel-Layer"/>
  <path class="fil0" d="M291.13 1.41c-53.71,6.29 -90.1,16.52 -131.14,40.14 -115.81,66.66 -185.26,203.5 -151.39,347.37 23.3,99 68.55,118.27 67.86,144.95 -2.79,108.39 -74.13,150.51 -23.07,154.91 118.87,10.24 188.74,-60.91 196.25,-61.93 3.62,-0.49 27.85,4.25 34.82,4.91 179.64,16.89 335.27,-115.3 347.92,-291.53 5.88,-81.92 -21.47,-166.87 -72.87,-226.2l-42.05 -42.14c-19.79,-17.06 -55.55,-37.74 -81.11,-48.28 -38.68,-15.94 -97.44,-27.79 -145.22,-22.19zm57.92 346.81l-156.57 0c-35.62,0 -30.8,33.07 -5.89,34.21 35.23,1.62 122.29,0.25 162.59,0.05 12.9,-0.06 23.35,-3.42 23.55,-16.88 0.23,-14.54 -9.55,-17.39 -23.67,-17.39zm-160.49 -41.9l255.41 0c27.56,0 30.55,-34.13 -0.98,-34.13l-253.45 0c-31.55,0 -28.6,34.13 -0.98,34.13zm-107.39 348.58c53.66,-0.73 100.64,-20.17 137.93,-49.29 5.92,-4.62 14.67,-15.02 24.23,-15.27 22.06,-0.58 90.5,30.47 194.54,-18.68 188.85,-89.2 222.5,-356.04 41.95,-485.55 -134.27,-96.31 -328.91,-55.06 -410.95,95.11 -50.44,92.33 -45.67,209.91 17.24,298.57 22.36,31.51 24.55,21.41 24.4,52.17 -0.37,73.45 -25.77,105.29 -29.36,122.94z"/>
 </g>
</svg>
