<?xml version="1.0" encoding="UTF-8"?>
<!DOCTYPE svg PUBLIC "-//W3C//DTD SVG 1.1//EN" "http://www.w3.org/Graphics/SVG/1.1/DTD/svg11.dtd">
<!-- Creator: CorelDRAW 2020 (64-Bit) -->
<svg xmlns="http://www.w3.org/2000/svg" xml:space="preserve" width="10.6159mm" height="11.2735mm" version="1.1" style="shape-rendering:geometricPrecision; text-rendering:geometricPrecision; image-rendering:optimizeQuality; fill-rule:evenodd; clip-rule:evenodd"
viewBox="0 0 1117.28 1186.48"
 xmlns:xlink="http://www.w3.org/1999/xlink"
 xmlns:xodm="http://www.corel.com/coreldraw/odm/2003">
 <defs>
  <style type="text/css">
   <![CDATA[
    .str0 {stroke:#4F5661;stroke-width:55.67;stroke-linecap:round;stroke-miterlimit:22.9256}
    .fil0 {fill:none}
   ]]>
  </style>
 </defs>
 <g id="Слой_x0020_1">
  <metadata id="CorelCorpID_0Corel-Layer"/>
  <path class="fil0 str0" d="M696.01 811.35c-4.06,-44.89 -2.5,-76.22 -2.5,-117.23 20.32,-10.66 56.75,-78.66 62.91,-136.11 15.99,-1.31 41.18,-16.9 48.56,-78.47 3.98,-33.06 -11.83,-51.65 -21.47,-57.51 26.01,-78.22 80.03,-320.2 -99.91,-345.21 -18.51,-32.52 -65.94,-48.98 -127.57,-48.98 -246.55,4.54 -276.29,186.18 -222.24,394.19 -9.61,5.85 -25.43,24.45 -21.47,57.51 7.41,61.57 32.58,77.17 48.56,78.47 6.13,57.42 43.99,125.44 64.38,136.11 0,41.01 1.54,72.35 -2.54,117.23 -48.78,131.16 -377.95,94.34 -393.15,347.3l1058.16 0c-15.18,-252.96 -342.93,-216.14 -391.71,-347.3z"/>
 </g>
</svg>
